<svg xmlns="http://www.w3.org/2000/svg" width="168.906" height="48" viewBox="0 0 168.906 48">
  <g id="那山那海LOGO" transform="translate(-0.78 -44.65)">
    <g id="Group_72" data-name="Group 72" transform="translate(0.78 44.65)">
      <g id="Group_69" data-name="Group 69">
        <path id="Path_60" data-name="Path 60" d="M78.324,32.453c1.552-1.035,1.372-2.745-.36-3.622h0c-5.174-2.655-8.324-4.252-17.614-3.419a38.029,38.029,0,0,0-5.961,1.125c-5.129,1.26-9.966,2.452-20.584-1.89-12.665-5.2-18.672-3.487-23.981-1.98-2.565.72-7,.765-7.784,1.057s-.562,1.3-.562,1.3a1.59,1.59,0,0,0,.045.562l1.485,5.916a1.012,1.012,0,0,1-.045.63L.848,37.807a1.123,1.123,0,0,0-.045.607l.967,4.117a2.074,2.074,0,0,0,2.07,1.26c6.861.27,11.113,2.272,15.207,4.229,3.757,1.8,7.311,3.487,12.89,3.689,5.8.225,10.551-2.587,16.04-5.826,6.276-3.689,13.318-7.829,23.756-8.661a2.6,2.6,0,0,0,1.62-.652A28.958,28.958,0,0,1,78.324,32.453Z" transform="translate(-0.78 -21.142)" fill="#768350"/>
      </g>
      <g id="Group_70" data-name="Group 70" transform="translate(75.436 3.122)">
        <path id="Path_61" data-name="Path 61" d="M123.742,22.53c-9.336.067-16.107,3.149-22.654,7.2-6.006,3.712-11.7,7.221-18.942,7.221h-.18c-6.344-.045-11.428-2.16-16.332-4.207a56.344,56.344,0,0,0-10.641-3.622c-8.054-1.732-14.487,1.26-18.829,4.522-.967.72-.382,1.845,1.035,2.07,8.121,1.372,15.252,5.736,22.2,9.966,7.671,4.679,14.937,9.111,22.7,9.156,4.724-.022,8.054-1.845,11.54-3.847,4.094-2.34,8.324-4.747,14.78-3.577,5.129.922,6.7-.4,9.066-2.43a15.588,15.588,0,0,1,9.493-4.252c1.08-.112,1.845-.765,1.642-1.485l-.675-2.385a.751.751,0,0,1-.023-.382l1.215-6.366a.642.642,0,0,0,0-.292l-.855-3.937a.46.46,0,0,1,0-.247l.225-1.62c.09-.7-.7-1.327-1.755-1.372-.832-.045-1.687-.067-2.587-.067A1.534,1.534,0,0,0,123.742,22.53Z" transform="translate(-35.688 -22.53)" fill="#768350"/>
      </g>
      <g id="Group_71" data-name="Group 71" transform="translate(0.496 19.003)">
        <path id="Path_62" data-name="Path 62" d="M168.763,35.357c0-1.845-6.163,1.665-8.283,3.509-2.43,2.092-5.191,4.477-12.281,3.172-4.7-.877-7.886.99-11.574,3.127-3.512,2.047-7.51,4.364-13.342,4.364h-.088c-8.88-.045-16.787-4.972-24.452-9.718C90.967,34.974,82.927,29.98,74,29.98h-.044c-11.177.022-18.51,4.409-24.982,8.279C43.3,41.655,37.91,44.85,30.93,44.625,24.5,44.4,20.46,42.443,16.55,40.531c-4.131-2-8.062-3.869-14.844-3.847L1,41.61l.066,14.915,8.681.81,10.846-1.147,10.2,1.6,10.139-2.227L51.495,57l10.293.022,10.934.54L83.7,56.953,94.59,58.19l11.022-.63,10.912,1.417,11-1.89L138.546,58.5l10.846-1.687,18.709,1.1.088-7.491-1.259-7.514S168.763,37.179,168.763,35.357Z" transform="translate(-1 -29.98)" fill="#768350"/>
      </g>
    </g>
  </g>
</svg>
