<svg id="Component_4_1" data-name="Component 4 – 1" xmlns="http://www.w3.org/2000/svg" width="17.747" height="17.747" viewBox="0 0 17.747 17.747">
  <path id="Path_1" data-name="Path 1" d="M10.874,3A7.874,7.874,0,1,1,5.306,5.306,7.822,7.822,0,0,1,10.874,3Zm0,14A6.124,6.124,0,1,0,4.75,10.874,6.131,6.131,0,0,0,10.874,17Z" transform="translate(-3 -3)" fill="#768350"/>
  <path id="Path_2" data-name="Path 2" d="M28.317,29.222a.9.9,0,0,1-.64-.265L23.74,25.02a.905.905,0,1,1,1.28-1.28l3.937,3.937a.905.905,0,0,1-.64,1.545Z" transform="translate(-11.475 -11.475)" fill="#768350"/>
</svg>
