<svg xmlns="http://www.w3.org/2000/svg" xmlns:xlink="http://www.w3.org/1999/xlink" width="51.499" height="12.816" viewBox="0 0 51.499 12.816">
  <defs>
    <clipPath id="clip-path">
      <rect id="Rectangle_117" data-name="Rectangle 117" width="51.499" height="12.816" fill="#a8b67e"/>
    </clipPath>
  </defs>
  <g id="Group_78" data-name="Group 78" clip-path="url(#clip-path)">
    <path id="Path_68" data-name="Path 68" d="M15.757,8.731c-2.288-1.352-4.263-3.354-6.525-4.705C7.36,2.934,6.164.49,3.72.074c-4.029-.7-5.277,3.977-1.274,4.679,1.508.26,3.094,2.86,4.289,3.561,2.7,1.586,3.406,2.392,6.109,3.977C16.043,14.164,18.954,10.6,15.757,8.731Z" transform="translate(-0.003 0.004)" fill="#a8b67e"/>
    <path id="Path_69" data-name="Path 69" d="M24.074.137c-2.548-.416-5.329,2.21-7.331,3.561-.988.65-1.508,1.794-2.47,2.522-.988.728-2.236,2.21-3.328,2.782-2.522,1.326.39,4.705,2.912,3.38,1.092-.572,1.794-1.638,2.756-2.366s1.664-1.664,2.678-2.34a56.96,56.96,0,0,1,5.953-4.029C27.818,2.321,26.778.553,24.074.137Z" transform="translate(15.96 0.149)" fill="#a8b67e"/>
    <path id="Path_70" data-name="Path 70" d="M22.763,4.656c0-.1.026-.182.026-.286-.052-1.17-.546-1.846-1.872-1.82-.52.026-1.014.026-1.534.052A2.41,2.41,0,0,0,17.1,4.214c-.234.936-.13,2.392.806,2.886.1.052.182.1.286.156.364.832,1.2.884,2.21.806.182-.026.338-.026.52-.052a2.207,2.207,0,0,0,1.9-1.508A2.013,2.013,0,0,0,22.763,4.656Z" transform="translate(27.176 4.079)" fill="#a8b67e"/>
    <path id="Path_71" data-name="Path 71" d="M12.194,4.921a1.429,1.429,0,0,0,.234-.182,1.619,1.619,0,0,0,.1-2.6c-.338-.39-.7-.754-1.04-1.118a2.393,2.393,0,0,0-2.73-.65C7.9.839,6.891,1.879,7.151,2.919l.078.312c-.416.806.13,1.482.858,2.184l.364.364a2.182,2.182,0,0,0,2.392.416A2.19,2.19,0,0,0,12.194,4.921Z" transform="translate(11.333 0.279)" fill="#a8b67e"/>
  </g>
</svg>
