<svg id="Layer_2" data-name="Layer 2" xmlns="http://www.w3.org/2000/svg" width="24" height="24" viewBox="0 0 24 24">
  <g id="invisible_box" data-name="invisible box">
    <rect id="Rectangle_59" data-name="Rectangle 59" width="24" height="24" fill="none"/>
  </g>
  <g id="icons_Q2" data-name="icons Q2" transform="translate(2 4)">
    <path id="Path_47" data-name="Path 47" d="M16.545,4A5.981,5.981,0,0,0,12,6.6,5.981,5.981,0,0,0,7.454,4,5.844,5.844,0,0,0,3.591,5.439,4.485,4.485,0,0,0,2,8.837c0,1.639,1.227,3.038,2.273,4.078l7.409,6.956a.5.5,0,0,0,.636,0l7.409-6.956C20.773,11.876,22,10.477,22,8.837,22,6.181,19.565,4.022,16.545,4Z" transform="translate(-2 -4)" fill="rgba(255,255,255,0.5)"/>
  </g>
</svg>
