<svg id="Layer_2" data-name="Layer 2" xmlns="http://www.w3.org/2000/svg" width="18" height="18" viewBox="0 0 18 18">
  <g id="invisible_box" data-name="invisible box">
    <rect id="Rectangle_26" data-name="Rectangle 26" width="18" height="18" fill="none"/>
  </g>
  <g id="icons_Q2" data-name="icons Q2" transform="translate(1 2)">
    <path id="Path_2" data-name="Path 2" d="M18.141,5.5h-7.52A2.319,2.319,0,0,0,8.489,4a2.245,2.245,0,0,0-2.1,1.5H4.823A.786.786,0,0,0,4,6.245a.786.786,0,0,0,.823.748H6.394a2.245,2.245,0,0,0,2.1,1.5,2.319,2.319,0,0,0,2.132-1.5h7.52a.786.786,0,0,0,.823-.748.786.786,0,0,0-.823-.748Zm-9.652,1.5a.748.748,0,1,1,.748-.748A.748.748,0,0,1,8.489,6.993Z" transform="translate(-4 -4)" fill="#768350"/>
    <path id="Path_3" data-name="Path 3" d="M18.266,19.5H16.733A2.319,2.319,0,0,0,14.6,18a2.245,2.245,0,0,0-2.1,1.5H4.948a.748.748,0,1,0,0,1.5h7.557a2.245,2.245,0,0,0,2.1,1.5,2.319,2.319,0,0,0,2.132-1.5h1.534a.748.748,0,1,0,0-1.5Zm-3.666,1.5a.748.748,0,1,1,.748-.748A.748.748,0,0,1,14.6,20.993Z" transform="translate(-4.125 -12.762)" fill="#768350"/>
    <path id="Path_4" data-name="Path 4" d="M18.266,33.5h-6.4A2.319,2.319,0,0,0,9.737,32a2.245,2.245,0,0,0-2.1,1.5H4.948a.748.748,0,1,0,0,1.5H7.642a2.245,2.245,0,0,0,2.1,1.5,2.319,2.319,0,0,0,2.132-1.5h6.4a.748.748,0,1,0,0-1.5Zm-8.53,1.5a.748.748,0,1,1,.748-.748A.748.748,0,0,1,9.737,34.993Z" transform="translate(-4.125 -21.525)" fill="#768350"/>
  </g>
</svg>
