<?xml version="1.0" encoding="utf-8"?>
<!-- Generator: Adobe Illustrator 26.3.1, SVG Export Plug-In . SVG Version: 6.00 Build 0)  -->
<svg version="1.1" id="圖層_1" xmlns="http://www.w3.org/2000/svg" xmlns:xlink="http://www.w3.org/1999/xlink" x="0px" y="0px"
	 viewBox="0 0 77.99 43.46" style="enable-background:new 0 0 77.99 43.46;" xml:space="preserve">
<style type="text/css">
	.st0{fill:#768350;}
	.st1{fill:#768350;stroke:#768350;stroke-width:0.1;stroke-miterlimit:10;}
</style>
<g>
	<g>
		<path class="st0" d="M35.25,26.17c0.69-0.46,0.61-1.22-0.16-1.61h0c-2.3-1.18-3.7-1.89-7.83-1.52c-1,0.09-1.84,0.3-2.65,0.5
			c-2.28,0.56-4.43,1.09-9.15-0.84c-5.63-2.31-8.3-1.55-10.66-0.88c-1.14,0.32-3.11,0.34-3.46,0.47s-0.25,0.58-0.25,0.58
			c-0.01,0.08,0,0.17,0.02,0.25l0.66,2.63c0.02,0.09,0.02,0.19-0.02,0.28l-0.94,2.52c-0.03,0.09-0.04,0.18-0.02,0.27l0.43,1.83
			c0.07,0.31,0.45,0.54,0.92,0.56c3.05,0.12,4.94,1.01,6.76,1.88c1.67,0.8,3.25,1.55,5.73,1.64c2.58,0.1,4.69-1.15,7.13-2.59
			c2.79-1.64,5.92-3.48,10.56-3.85c0.29-0.02,0.56-0.13,0.72-0.29C33.62,27.39,34.36,26.76,35.25,26.17z"/>
	</g>
	<g>
		<path class="st0" d="M74.83,22.53c-4.15,0.03-7.16,1.4-10.07,3.2c-2.67,1.65-5.2,3.21-8.42,3.21c-0.03,0-0.05,0-0.08,0
			c-2.82-0.02-5.08-0.96-7.26-1.87c-1.48-0.62-3.01-1.26-4.73-1.61c-3.58-0.77-6.44,0.56-8.37,2.01c-0.43,0.32-0.17,0.82,0.46,0.92
			c3.61,0.61,6.78,2.55,9.87,4.43c3.41,2.08,6.64,4.05,10.09,4.07c2.1-0.01,3.58-0.82,5.13-1.71c1.82-1.04,3.7-2.11,6.57-1.59
			C70.3,34,71,33.41,72.05,32.51c0.9-0.76,1.98-1.66,4.22-1.89c0.48-0.05,0.82-0.34,0.73-0.66L76.7,28.9
			c-0.02-0.06-0.02-0.12-0.01-0.17l0.54-2.83c0.01-0.04,0.01-0.09,0-0.13l-0.38-1.75c-0.01-0.04-0.01-0.08,0-0.11l0.1-0.72
			c0.04-0.31-0.31-0.59-0.78-0.61c-0.37-0.02-0.75-0.03-1.15-0.03C74.94,22.53,74.89,22.53,74.83,22.53z"/>
	</g>
	<g>
		<path class="st0" d="M76.95,32.37c0-0.82-2.79,0.74-3.75,1.56c-1.1,0.93-2.35,1.99-5.56,1.41c-2.13-0.39-3.57,0.44-5.24,1.39
			c-1.59,0.91-3.4,1.94-6.04,1.94c-0.01,0-0.03,0-0.04,0c-4.02-0.02-7.6-2.21-11.07-4.32c-3.52-2.15-7.16-4.37-11.2-4.37
			c-0.01,0-0.01,0-0.02,0c-5.06,0.01-8.38,1.96-11.31,3.68c-2.57,1.51-5.01,2.93-8.17,2.83c-2.91-0.1-4.74-0.97-6.51-1.82
			c-1.87-0.89-3.65-1.72-6.72-1.71l-0.32,2.19l0.03,6.63l3.93,0.36l4.91-0.51l4.62,0.71l4.59-0.99l4.78,0.64L28.52,42l4.95,0.24
			l4.97-0.27l4.93,0.55l4.99-0.28l4.94,0.63l4.98-0.84l4.99,0.63l4.91-0.75l8.47,0.49l0.04-3.33l-0.57-3.34
			C76.12,35.73,76.95,33.18,76.95,32.37z"/>
	</g>
</g>
<g>
	<g>
		<path class="st1" d="M9.53,5.29C9.48,5.33,9.38,5.53,9.22,5.9C9.17,6.02,9.06,6.18,8.9,6.38S8.63,6.74,8.58,6.86
			S8.52,7.11,8.52,7.25C8.49,7.3,8.46,7.37,8.43,7.46C8.44,7.48,8.46,7.49,8.49,7.5L8.5,7.53L8.41,7.65v0.13L8.38,7.76
			c-0.03,0-0.05,0-0.06,0.01l0.01,0.06l0.09,0.07L8.37,7.94l0.06,0.13L8.34,8.13L8.4,8.34L8.32,8.36L8.31,8.41
			C8.3,8.46,8.3,8.5,8.31,8.54H8.25v0.01L8.26,8.6L8.23,8.64l0.07,0.03L8.16,9.01v0.01l0.01-0.03C8.18,9,8.2,9.02,8.22,9.04
			c0.02-0.01,0.04-0.02,0.07-0.03l0.01,0.03L8.23,9.27l0.07,0.23C8.25,9.56,8.19,9.62,8.14,9.71c0.03,0.04,0.08,0.09,0.16,0.16
			l-0.15,0.15c0,0.01,0.01,0.02,0.03,0.03l0.04,0.01c-0.02,0.05-0.04,0.14-0.07,0.26l-0.02,0.01c-0.03,0.01-0.05,0.02-0.06,0.04
			l-0.02,0.07l0.16,0.16c-0.07,0.04-0.1,0.11-0.09,0.21v0.1l0.06,0.03H8.19L8.11,11l-0.03,0.04c-0.01,0.03-0.02,0.07-0.02,0.13
			l0.02,0.04v0.01c0.02-0.02,0.03-0.03,0.04-0.03l0.02,0.03v0.04c-0.05,0.04-0.08,0.07-0.1,0.09c0.01,0.05,0.03,0.08,0.06,0.09
			l-0.06,0.07c0.03,0.04,0.06,0.09,0.1,0.16v0.03c-0.03,0.01-0.05,0.02-0.06,0.03l-0.02,0.04l0.03,0.1l-0.06,0.38l0.04,0.15
			L7.93,12.6h0.1c0.01,0.02,0.02,0.04,0.02,0.07c0,0.04-0.01,0.1-0.03,0.19s-0.03,0.16-0.03,0.21c0,0.27,0.05,0.59,0.15,0.95
			L8.1,14.15l0.06,0.28C8.13,14.41,8.1,14.4,8.07,14.4c-0.02,0-0.06,0.02-0.13,0.05C7.86,14.49,7.82,14.5,7.8,14.5
			c-0.01,0.03-0.05,0.1-0.12,0.21l-0.07,0.03c-0.41-0.19-0.61-0.72-0.61-1.6l0.02-0.03l0.03-0.04c-0.14-0.49-0.21-0.77-0.21-0.83
			c0.02,0.12,0.09,0.22,0.21,0.32c-0.01,0.09,0.04,0.17,0.15,0.25c0.06-0.22,0.1-0.56,0.11-1c0.01-0.44,0.05-0.77,0.11-0.99h0.1
			v-0.07c-0.04-0.09-0.08-0.13-0.13-0.12c0.02-0.05,0.03-0.13,0.03-0.23l0.04-0.07c0.01,0.06,0.01-0.13,0.01-0.57L7.44,9.6
			c0.05-0.08,0.07-0.15,0.07-0.21L7.47,9.04C7.5,8.96,7.52,8.75,7.52,8.41c0-0.74,0.02-1.4,0.07-1.96c0-0.06,0.01-0.17,0.04-0.34
			c0.03-0.17,0.04-0.29,0.04-0.38L7.67,5.64C7.63,5.61,7.58,5.56,7.52,5.49C7.29,5.56,7.14,5.73,7.06,5.98
			C6.99,6.24,6.91,6.49,6.84,6.72C6.67,6.83,6.49,6.93,6.32,7.03C6.13,7.17,6.03,7.34,6.01,7.54c0.02,0.01,0.22,0.05,0.6,0.13
			c0.25,0.06,0.42,0.16,0.52,0.31C7.11,8.04,7.07,8.1,7.01,8.14l0.1,0.09v0.06c0.02,0.09,0.07,0.14,0.16,0.16L7.25,8.57
			C7.12,8.63,6.91,8.71,6.64,8.82C6.48,8.84,6.25,8.88,5.96,8.95C5.72,9.18,5.59,9.43,5.55,9.68C5.57,9.69,5.59,9.7,5.62,9.7
			c0.05,0,0.12-0.04,0.22-0.12s0.19-0.12,0.28-0.12c0.33,0,0.61,0.04,0.85,0.13l0.02,0.09c0.12,0,0.21,0.05,0.27,0.16L7.25,9.87
			c0.03,0.03,0.06,0.07,0.1,0.13l-0.03,0.12l0.03,0.09c-0.11,0.13-0.43,0.3-0.97,0.51c-0.54,0.21-0.82,0.35-0.84,0.4l-0.1-0.03
			c-0.02,0.03-0.04,0.05-0.06,0.06l-0.01,0.04l0.03,0.06c-0.21,0.05-0.41,0.45-0.61,1.2c-0.19,0.7-0.26,1.18-0.21,1.42l-0.06,0.35
			l0.03,0.15l-0.06,0.18c-0.08-0.01-0.14,0-0.19,0.03l-0.06,0.06c-0.02,0.04-0.02,0.07-0.01,0.1c-0.18-0.23-0.31-0.61-0.39-1.11
			c0-0.11,0-0.21,0-0.32c0.01-0.15,0.06-0.22,0.15-0.23c-0.01-0.05-0.02-0.09-0.02-0.12c0-0.16,0.04-0.29,0.13-0.4
			c0.01,0.02,0.02,0.05,0.03,0.08c0.01,0.03,0.04,0.07,0.07,0.11l0.07-0.06l-0.01-0.1c0-0.17,0.09-0.48,0.28-0.94l-0.06-0.06
			c-0.18-0.03-0.41-0.11-0.7-0.23c-0.16-0.25-0.36-0.56-0.6-0.92c-0.07-0.1-0.1-0.26-0.1-0.48l0.06-0.21l0.09-0.01l0.36,0.21
			c0.06-0.01,0.1-0.01,0.13-0.01c0.08,0,0.16,0.02,0.24,0.06C4,9.96,4.07,9.95,4.16,9.95c0.01,0,0.09,0.03,0.24,0.1l0.12-0.1
			c0.05,0,0.09,0.01,0.13,0.03c0.09-0.07,0.21-0.17,0.37-0.31L5.01,9.58c0.02-0.21,0.07-0.43,0.15-0.67
			c-0.1-0.07-0.33-0.14-0.7-0.21C4.14,8.65,3.93,8.55,3.83,8.39C3.74,8.37,3.64,8.32,3.55,8.23C3.42,8.1,3.34,8.02,3.31,8
			c0.03-0.16,0.08-0.27,0.15-0.34c0.09-0.02,0.23-0.05,0.43-0.09c0.07,0,0.17,0,0.3,0.01C4.36,7.6,4.46,7.6,4.5,7.6
			c0.68,0,0.98,0,0.9-0.01C5.46,7.4,5.53,7.13,5.62,6.77L5.35,6.56L4.89,6.64C4.72,6.5,4.48,6.29,4.17,6.01L4.14,5.92
			C4.02,5.87,3.95,5.86,3.92,5.89C3.73,5.73,3.48,5.56,3.16,5.38C3,5.05,2.86,4.85,2.75,4.76H2.71C2.7,4.68,2.66,4.56,2.6,4.38
			C2.53,4.2,2.5,4.07,2.5,3.97c0-0.35,0.22-0.53,0.67-0.53c0.07,0,0.14,0,0.21,0.01l0.12,0.1l0.15-0.01
			c0.3,0.08,0.64,0.17,1.02,0.28V3.78c0-0.01,0-0.01,0.02-0.01c0.03,0.01,0.05,0.02,0.07,0.03h0.09l0.03,0.04
			c0.09-0.06,0.46-0.08,1.1-0.07C5.99,3.74,6,3.71,6.02,3.68c0.03,0,0.1,0.03,0.22,0.09l0.04-0.06h0.1l0.06-0.03
			C6.74,3.71,7.1,3.76,7.52,3.84l0.07-0.04l0.49,0.12L8.16,3.9c0.16,0,0.35,0.08,0.56,0.24C8.93,4.3,9.08,4.46,9.17,4.61
			C9.23,4.77,9.35,5,9.53,5.29z M8.04,12.39l-0.07-0.1l-0.04,0.16L8.04,12.39z M16.35,10.65l-0.03,0.1
			c-0.06,0.03-0.27,0.16-0.64,0.4c-0.13-0.02-0.28-0.05-0.46-0.09c-0.18-0.09-0.28-0.13-0.31-0.13c-0.33,0-0.62,0.04-0.87,0.11
			c-0.25,0.07-0.54,0.23-0.87,0.46c-0.27,0.2-0.54,0.39-0.81,0.59c-0.15,0.09-0.37,0.23-0.66,0.42c-0.09,0.08-0.15,0.16-0.18,0.25
			c-0.03,0.09-0.04,0.3-0.04,0.63c0,1.22,0.07,2.07,0.22,2.55c-0.03,0.07-0.06,0.18-0.1,0.32l-0.04,0.01l-0.06-0.04
			c-0.06,0.08-0.13,0.19-0.21,0.32c-0.46-0.29-0.69-0.92-0.69-1.89c0-0.56,0.02-0.85,0.06-0.89l0.12,0.34l0.15-4.19
			c-0.03-0.07-0.04-0.29-0.04-0.66c0-0.28-0.05-0.46-0.15-0.54c-0.01-0.05-0.01-0.09-0.01-0.13c0-0.15,0.09-0.27,0.27-0.38
			c0.15-0.08,0.3-0.15,0.45-0.22c0.19,0.05,0.29,0.16,0.31,0.34c-0.05,0.15-0.1,0.61-0.16,1.39c-0.06,0.71-0.09,1.2-0.09,1.45
			c0,0.15,0.02,0.29,0.04,0.44l0.21-0.73c0.02,0.11,0.09,0.26,0.21,0.45c0.05,0.01,0.13-0.02,0.25-0.08
			c0.12-0.06,0.19-0.1,0.22-0.11L12.52,11c0.07-0.06,0.22-0.13,0.46-0.21l0.13-0.25c0.23-0.21,0.51-0.45,0.85-0.7
			c-0.01-0.12-0.11-0.32-0.3-0.62c-0.17-0.25-0.25-0.58-0.25-0.98c0-0.13,0.03-0.35,0.09-0.67c0.05-0.28,0.07-0.5,0.06-0.66v-0.1
			l-0.03-0.03C13.35,6.8,13.07,6.9,12.7,7.08c-0.34,0.16-0.62,0.23-0.84,0.23c-0.07,0-0.16-0.04-0.26-0.11s-0.17-0.11-0.2-0.11
			c-0.03,0.01-0.05,0.02-0.06,0.03c-0.07-0.09-0.15-0.13-0.25-0.14s-0.16-0.02-0.19-0.04c-0.06-0.04-0.15-0.09-0.28-0.16h-0.07
			c-0.16-0.1-0.31-0.23-0.45-0.41c0.01-0.03,0.02-0.06,0.02-0.09c0-0.05-0.07-0.13-0.21-0.25L9.86,5.99
			C9.84,5.87,9.78,5.65,9.7,5.32c-0.09-0.27-0.13-0.5-0.13-0.67c0-0.24,0.06-0.39,0.19-0.44c0.17-0.04,0.33-0.08,0.49-0.12
			c0.06,0.03,0.19,0.06,0.4,0.09l0.01,0.03c0.02,0.02,0.04,0.05,0.06,0.09c0.02,0.04,0.04,0.07,0.06,0.1l0.03,0.04
			c0.02,0.01,0.04,0.01,0.07,0l0.04,0.07c0.01-0.03,0.04-0.05,0.09-0.06c0.12,0.02,0.3,0.04,0.55,0.07c0.07,0.01,0.18,0,0.32-0.04
			c0.14-0.03,0.25-0.05,0.31-0.05c0.05,0,0.15,0.01,0.31,0.04l0.88-0.16l0.22,0.04c0.01-0.03,0.02-0.05,0.04-0.06
			c0.07,0,0.12,0,0.15-0.01c0.13,0,0.33,0.01,0.6,0.04c0.24,0.06,0.5,0.21,0.78,0.47c0.3,0.28,0.45,0.54,0.45,0.76l0.03,0.04
			c0.04,0.04,0.1,0.09,0.19,0.16c0,0.24-0.21,0.56-0.62,0.94s-0.59,0.69-0.54,0.92c-0.05,0.07-0.07,0.13-0.07,0.18
			c0,0.38,0.12,0.7,0.37,0.95c0.38,0.36,0.59,0.6,0.64,0.7C15.8,9.72,16.03,10.11,16.35,10.65z"/>
		<path class="st1" d="M32.63,12.23c-0.06,0.06-0.12,0.09-0.18,0.09l-0.09-0.03c-0.07-0.06-0.13-0.09-0.18-0.1
			c-0.14,0.08-0.25,0.34-0.34,0.79c-0.07,0.32-0.13,0.64-0.19,0.97h-0.28l-0.04,0.01L31.3,14l-0.02,0.07l-0.06-0.01
			c-0.03-0.01-0.05-0.03-0.06-0.06l-0.04-0.01l-0.06,0.07l-0.07-0.07l-0.09,0.03c-0.07-0.03-0.11-0.08-0.13-0.15
			s-0.04-0.13-0.06-0.19h-0.22c-0.11-0.2-0.2-0.33-0.27-0.4c-0.11-0.13-0.24-0.21-0.4-0.23c-0.05,0.04-0.09,0.06-0.13,0.07
			c-0.05-0.04-0.1-0.06-0.15-0.06l-0.04,0.01c-0.12-0.02-0.22-0.03-0.3-0.03c-0.38,0-0.8,0.04-1.25,0.12
			c-0.66,0.1-1.06,0.16-1.19,0.18c-0.62,0.05-1.35,0.15-2.19,0.31c-0.17,0.07-0.41,0.17-0.72,0.29s-0.53,0.24-0.66,0.34
			c-0.16,0.16-0.39,0.38-0.7,0.67h-0.03c0,0.02,0.01,0.04,0.03,0.07c0,0.02,0,0.04-0.01,0.07c0,0.03,0,0.05,0,0.06
			c0,0.05,0,0.12,0.01,0.23s0.02,0.18,0.02,0.24v0.13c-0.07,0.02-0.15,0.11-0.23,0.27c-0.08,0.16-0.17,0.27-0.25,0.31
			c-0.3-0.2-0.51-0.29-0.64-0.29c-0.06-0.09-0.2-0.23-0.43-0.44c-0.22-0.21-0.37-0.32-0.44-0.35c-0.28-0.55-0.42-0.89-0.42-1.04
			c0-0.22,0.04-0.36,0.12-0.41l-0.04-0.13l0.06-0.07c-0.01-0.03-0.02-0.08-0.02-0.15l-0.01,0.01c0.01-0.03,0.02-0.07,0.04-0.13
			l0.04-0.04c-0.01-0.06-0.03-0.72-0.06-1.99c-0.01-0.05-0.02-0.13-0.04-0.26c-0.02-0.12-0.02-0.21-0.02-0.27l0.06-0.4
			c0.01-0.04-0.01-0.18-0.06-0.41c0.03-0.09,0.08-0.21,0.15-0.35c0.04-0.02,0.07-0.03,0.1-0.04c-0.02-0.03-0.03-0.07-0.04-0.12
			c0-0.1,0.03-0.22,0.1-0.36c0.07-0.14,0.15-0.21,0.24-0.21c0.05,0,0.12,0.02,0.2,0.07s0.14,0.08,0.17,0.09
			c0.14,0.12,0.32,0.27,0.54,0.45c0.14,0.07,0.28,0.15,0.42,0.25c0.06,0.01,0.15,0.04,0.28,0.09c0.07,0.14,0.17,0.34,0.3,0.62
			c-0.01,0.04-0.04,0.08-0.1,0.13l-0.03,0.06c0.12,0.18,0.18,0.38,0.18,0.62c0,0.06-0.02,0.11-0.04,0.16
			c-0.34,0.19-0.51,0.51-0.51,0.98c0,0.07-0.01,0.17-0.04,0.31s-0.04,0.24-0.04,0.31s0.01,0.15,0.03,0.23
			c0.29-0.1,0.78-0.23,1.46-0.41c0.8-0.21,1.24-0.31,1.33-0.29c0.14-0.08,0.38-0.14,0.72-0.18c0.39-0.05,0.65-0.1,0.78-0.15
			l-0.16-0.18c-0.08,0-0.18-0.05-0.3-0.16c-0.15-0.14-0.23-0.21-0.25-0.23c-0.01-0.02-0.05-0.11-0.11-0.28
			c-0.01-0.01-0.05-0.02-0.12-0.03c-0.09-0.18-0.2-0.33-0.34-0.47c-0.02-0.11,0-0.27,0.06-0.48c-0.03-0.02-0.06-0.05-0.1-0.09
			l-0.03-0.06l0.13-0.12c-0.02-0.06-0.02-0.17,0.01-0.34L24.91,9.6l0.04-0.13c-0.27-0.41-0.39-0.77-0.36-1.07l-0.13-0.09
			c0-0.04,0.01-0.09,0.03-0.16l-0.01-0.03l0.01,0.01l0.02-0.01c0.02-0.02,0.03-0.02,0.04,0c-0.18-0.14-0.27-0.34-0.27-0.62
			c0.02-0.07,0.04-0.15,0.07-0.23c-0.04-0.07-0.1-0.17-0.19-0.31l-0.1-0.03c0-0.07-0.04-0.17-0.11-0.31
			c-0.07-0.14-0.11-0.25-0.11-0.31c0-0.04,0.01-0.08,0.03-0.12l-0.04-0.09l-0.09-0.04c-0.01-0.06-0.03-0.14-0.07-0.25
			c-0.02,0-0.04,0.01-0.06,0.03c-0.01-0.03-0.01-0.06,0-0.09c0.03-0.03,0.08-0.08,0.15-0.15c-0.02-0.04-0.08-0.13-0.18-0.26
			c-0.01-0.01,0-0.06,0.04-0.15c0.03,0,0.08-0.01,0.15-0.04c0.04-0.09,0.1-0.21,0.19-0.38l-0.03-0.1c0.01-0.07,0.07-0.15,0.18-0.25
			c0.11-0.1,0.17-0.16,0.19-0.19h0.27l0.07-0.13l0.12,0.06c0.02-0.03,0.04-0.07,0.07-0.12l-0.01-0.01c0.03-0.04,0.08-0.09,0.16-0.15
			c0.04,0,0.07,0,0.1,0.01c-0.01,0.03,0.02,0.07,0.1,0.11c0.08,0.04,0.12,0.07,0.13,0.08l0.03,0.01c0.05-0.05,0.11-0.1,0.18-0.15
			c0.03,0,0.06,0,0.09,0.01l0.07,0.09l0.1-0.07c0.01,0.11,0.04,0.18,0.09,0.22l0.07-0.01l0.06,0.01c0.03,0.03,0.07,0.07,0.13,0.13
			l0.06,0.03c0.04,0.01,0.17,0.06,0.4,0.16c0.01,0.04,0.03,0.1,0.06,0.19l0.19-0.04c-0.01,0.03-0.02,0.05-0.02,0.07
			c0,0.1,0.18,0.33,0.55,0.69l-0.01,0.07l0.16,0.31l0.04,0.01c0.03-0.02,0.06-0.02,0.09-0.01l0.03,0.01c0,0.06,0.01,0.13,0.03,0.22
			c0.18,0.15,0.3,0.33,0.36,0.56l0.06,0.03l0.04,0.04c0.07,0.25,0.1,0.39,0.1,0.4l0.12,0.13c-0.01,0.02-0.03,0.04-0.06,0.07
			c0.06,0.04,0.1,0.09,0.12,0.16c0.02,0.07,0.05,0.12,0.09,0.16l0.02,0.07c-0.05,0.1-0.07,0.16-0.07,0.19
			c0,0.07,0.03,0.14,0.09,0.21l-0.16,0.22l0.04,0.03c0.03,0,0.06,0,0.1,0l0.04,0.06c-0.02,0.03-0.04,0.07-0.07,0.13l0.01,0.04
			c0.01,0.03,0.03,0.05,0.06,0.07c-0.1,0.07-0.15,0.2-0.16,0.38c-0.11,0.1-0.23,0.2-0.36,0.29v0.03l0.03,0.01l0.03,0.01
			c-0.11,0.11-0.26,0.27-0.45,0.5l-0.03,0.1c0.01,0.06,0.02,0.1,0.03,0.13c-0.11,0.05-0.16,0.13-0.16,0.25
			c0,0.04,0.01,0.08,0.03,0.13c-0.01,0.14-0.02,0.19-0.02,0.16c0,0.06,0.02,0.11,0.07,0.16c-0.03,0.34-0.04,0.5-0.04,0.47
			c0,0.07,0.02,0.24,0.06,0.51c-0.06,0.04-0.13,0.14-0.21,0.29l0.02,0.01c0.07,0,0.11,0,0.13,0.01c0.05-0.02,0.09-0.03,0.13-0.03
			c0.14,0,0.34-0.03,0.61-0.09c0.27-0.06,0.47-0.09,0.6-0.09c0.24,0,0.4-0.01,0.48-0.03c0.01-0.04,0.03-0.08,0.06-0.12
			c0.07-0.01,0.17-0.06,0.31-0.15l0.13-0.03c0.02-0.05,0.04-0.12,0.06-0.22c-0.03-0.26-0.1-0.51-0.21-0.75v-0.06
			c0.01-0.06-0.01-0.14-0.06-0.25s-0.08-0.19-0.09-0.23c0.06-0.06,0.18-0.1,0.36-0.12c0.22-0.01,0.35-0.02,0.4-0.04
			c0.11,0.04,0.28,0.11,0.51,0.21c0.07,0.05,0.18,0.12,0.34,0.21c0.7,0.34,1.04,0.62,1.04,0.82c-0.15,0.08-0.22,0.15-0.22,0.21
			c0,0.03,0.01,0.07,0.04,0.12c0.03,0.05,0.04,0.09,0.04,0.11l-0.03,0.09c0.15,0.08,0.28,0.18,0.4,0.29L32.63,12.23z"/>
		<path class="st1" d="M39.76,14.87c-0.03,0.07-0.07,0.17-0.13,0.29c-0.05,0.04-0.11,0.1-0.19,0.19l-0.01,0.07
			c-0.08,0-0.16,0.03-0.25,0.1c-0.12,0.14-0.3,0.33-0.55,0.59c-0.18,0.15-0.44,0.38-0.79,0.69c-0.03-0.05-0.08-0.11-0.15-0.18h-0.06
			c0.38-0.29,0.7-0.67,0.96-1.14c-0.07-0.05-0.14-0.07-0.21-0.06c-0.03-0.01-0.06-0.01-0.09-0.01l-0.1,0.06h-0.04l-0.27-0.07
			c-0.03-0.11-0.1-0.19-0.21-0.25c0-0.05-0.02-0.13-0.05-0.25c-0.04-0.12-0.05-0.2-0.05-0.25s0-0.09,0-0.12
			c0-0.2,0.11-0.4,0.33-0.62l0.06-0.13l0.03-0.03l0.06,0.01l0.04-0.07c0.05-0.05,0.12-0.08,0.22-0.1l0.07,0.01l0.36-0.09
			c0.1,0.04,0.25,0.1,0.45,0.18c0.02,0.1,0.08,0.17,0.18,0.22c0.1,0.05,0.16,0.09,0.19,0.13c0.03,0.14,0.1,0.33,0.21,0.57
			l-0.03,0.09L39.76,14.87z"/>
	</g>
	<g>
		<path class="st1" d="M52.05,5.29C52,5.33,51.89,5.53,51.73,5.9c-0.05,0.12-0.16,0.28-0.32,0.48s-0.27,0.36-0.31,0.48
			s-0.07,0.25-0.07,0.39C51,7.3,50.97,7.37,50.94,7.46C50.95,7.48,50.97,7.49,51,7.5l0.02,0.03l-0.09,0.12v0.13L50.9,7.76
			c-0.03,0-0.05,0-0.06,0.01l0.01,0.06l0.09,0.07l-0.06,0.03l0.06,0.13l-0.09,0.06l0.06,0.21l-0.07,0.03l-0.02,0.04
			c-0.01,0.05-0.01,0.09,0,0.13h-0.06v0.01l0.02,0.04l-0.03,0.04l0.07,0.03l-0.15,0.34v0.01L50.69,9C50.7,9,50.71,9.02,50.73,9.04
			c0.02-0.01,0.04-0.02,0.07-0.03l0.01,0.03l-0.07,0.23l0.07,0.23c-0.06,0.05-0.11,0.12-0.16,0.21c0.03,0.04,0.08,0.09,0.16,0.16
			l-0.15,0.15c0,0.01,0.01,0.02,0.03,0.03l0.04,0.01c-0.02,0.05-0.04,0.14-0.07,0.26l-0.02,0.01c-0.03,0.01-0.05,0.02-0.06,0.04
			l-0.02,0.07l0.16,0.16c-0.07,0.04-0.1,0.11-0.09,0.21v0.1l0.06,0.03H50.7L50.63,11l-0.03,0.04c-0.01,0.03-0.02,0.07-0.02,0.13
			l0.02,0.04v0.01c0.02-0.02,0.03-0.03,0.04-0.03l0.02,0.03v0.04c-0.05,0.04-0.08,0.07-0.1,0.09c0.01,0.05,0.03,0.08,0.06,0.09
			l-0.06,0.07c0.03,0.04,0.06,0.09,0.1,0.16v0.03c-0.03,0.01-0.05,0.02-0.06,0.03l-0.02,0.04l0.03,0.1l-0.06,0.38l0.04,0.15
			l-0.15,0.18h0.1c0.01,0.02,0.02,0.04,0.02,0.07c0,0.04-0.01,0.1-0.03,0.19s-0.03,0.16-0.03,0.21c0,0.27,0.05,0.59,0.15,0.95
			l-0.04,0.13l0.06,0.28c-0.03-0.02-0.06-0.03-0.09-0.03c-0.02,0-0.06,0.02-0.13,0.05c-0.07,0.03-0.11,0.05-0.13,0.05
			c-0.01,0.03-0.05,0.1-0.12,0.21l-0.07,0.03c-0.41-0.19-0.61-0.72-0.61-1.6l0.02-0.03l0.03-0.04c-0.14-0.49-0.21-0.77-0.21-0.83
			c0.02,0.12,0.09,0.22,0.21,0.32c-0.01,0.09,0.04,0.17,0.15,0.25c0.06-0.22,0.1-0.56,0.11-1c0.01-0.44,0.05-0.77,0.11-0.99h0.1
			v-0.07c-0.04-0.09-0.08-0.13-0.13-0.12c0.02-0.05,0.03-0.13,0.03-0.23l0.04-0.07c0.01,0.06,0.01-0.13,0.01-0.57L49.96,9.6
			c0.05-0.08,0.07-0.15,0.07-0.21l-0.04-0.35c0.03-0.08,0.04-0.29,0.04-0.63c0-0.74,0.02-1.4,0.07-1.96c0-0.06,0.01-0.17,0.04-0.34
			c0.03-0.17,0.04-0.29,0.04-0.38l-0.01-0.09c-0.04-0.03-0.09-0.08-0.15-0.15c-0.23,0.07-0.38,0.23-0.46,0.49
			c-0.07,0.26-0.15,0.51-0.22,0.74c-0.18,0.11-0.35,0.21-0.52,0.31c-0.19,0.14-0.29,0.31-0.31,0.51c0.02,0.01,0.22,0.05,0.6,0.13
			c0.25,0.06,0.42,0.16,0.52,0.31c-0.02,0.06-0.06,0.11-0.12,0.16l0.1,0.09v0.06c0.02,0.09,0.07,0.14,0.16,0.16l-0.03,0.12
			c-0.13,0.06-0.33,0.14-0.61,0.25c-0.16,0.02-0.38,0.06-0.67,0.13c-0.24,0.23-0.38,0.48-0.42,0.73c0.02,0.01,0.04,0.01,0.07,0.01
			c0.05,0,0.12-0.04,0.22-0.12s0.19-0.12,0.28-0.12c0.33,0,0.61,0.04,0.85,0.13l0.02,0.09c0.12,0,0.21,0.05,0.27,0.16l-0.01,0.03
			c0.03,0.03,0.06,0.07,0.1,0.13l-0.03,0.12l0.03,0.09c-0.11,0.13-0.43,0.3-0.97,0.51c-0.54,0.21-0.82,0.35-0.84,0.4l-0.1-0.03
			c-0.02,0.03-0.04,0.05-0.06,0.06l-0.01,0.04l0.03,0.06c-0.21,0.05-0.41,0.45-0.61,1.2c-0.19,0.7-0.26,1.18-0.21,1.42l-0.06,0.35
			l0.03,0.15L47,14.55c-0.08-0.01-0.14,0-0.19,0.03l-0.06,0.06c-0.02,0.04-0.02,0.07-0.01,0.1c-0.18-0.23-0.31-0.61-0.39-1.11
			c0-0.11,0-0.21,0-0.32c0.01-0.15,0.06-0.22,0.15-0.23c-0.01-0.05-0.02-0.09-0.02-0.12c0-0.16,0.04-0.29,0.13-0.4
			c0.01,0.02,0.02,0.05,0.03,0.08c0.01,0.03,0.04,0.07,0.07,0.11l0.07-0.06l-0.01-0.1c0-0.17,0.09-0.48,0.28-0.94L47,11.59
			c-0.18-0.03-0.41-0.11-0.7-0.23c-0.16-0.25-0.36-0.56-0.6-0.92c-0.07-0.1-0.1-0.26-0.1-0.48l0.06-0.21l0.09-0.01l0.36,0.21
			c0.06-0.01,0.1-0.01,0.13-0.01c0.08,0,0.16,0.02,0.24,0.06c0.04-0.02,0.1-0.03,0.19-0.03c0.01,0,0.09,0.03,0.24,0.1l0.12-0.1
			c0.05,0,0.09,0.01,0.13,0.03c0.09-0.07,0.21-0.17,0.37-0.31l-0.02-0.09c0.02-0.21,0.07-0.43,0.15-0.67
			c-0.1-0.07-0.33-0.14-0.7-0.21c-0.32-0.05-0.53-0.15-0.63-0.31c-0.09-0.02-0.18-0.07-0.28-0.16C45.93,8.1,45.85,8.02,45.82,8
			c0.03-0.16,0.08-0.27,0.15-0.34c0.09-0.02,0.23-0.05,0.43-0.09c0.07,0,0.17,0,0.3,0.01c0.17,0.01,0.27,0.01,0.31,0.01
			c0.68,0,0.98,0,0.9-0.01c0.06-0.19,0.13-0.46,0.22-0.82l-0.27-0.21l-0.46,0.07C47.24,6.5,47,6.29,46.69,6.01l-0.03-0.09
			c-0.12-0.05-0.19-0.06-0.22-0.03c-0.19-0.16-0.44-0.33-0.76-0.51c-0.16-0.32-0.29-0.53-0.4-0.62h-0.04
			c-0.01-0.08-0.05-0.21-0.11-0.38c-0.06-0.18-0.1-0.31-0.1-0.41c0-0.35,0.22-0.53,0.67-0.53c0.07,0,0.14,0,0.21,0.01l0.12,0.1
			l0.15-0.01c0.3,0.08,0.64,0.17,1.02,0.28V3.78c0-0.01,0-0.01,0.02-0.01c0.03,0.01,0.05,0.02,0.07,0.03h0.09l0.03,0.04
			c0.09-0.06,0.46-0.08,1.1-0.07c0.01-0.03,0.02-0.06,0.04-0.09c0.03,0,0.1,0.03,0.22,0.09l0.04-0.06h0.1l0.06-0.03
			c0.29,0.03,0.64,0.08,1.06,0.16l0.07-0.04l0.49,0.12l0.07-0.01c0.16,0,0.35,0.08,0.56,0.24c0.21,0.16,0.37,0.32,0.46,0.48
			C51.75,4.77,51.87,5,52.05,5.29z M50.55,12.39l-0.07-0.1l-0.04,0.16L50.55,12.39z M58.87,10.65l-0.03,0.1
			c-0.06,0.03-0.27,0.16-0.64,0.4c-0.13-0.02-0.28-0.05-0.46-0.09c-0.18-0.09-0.28-0.13-0.31-0.13c-0.33,0-0.62,0.04-0.87,0.11
			c-0.25,0.07-0.54,0.23-0.87,0.46c-0.27,0.2-0.54,0.39-0.81,0.59c-0.15,0.09-0.37,0.23-0.66,0.42c-0.09,0.08-0.15,0.16-0.18,0.25
			c-0.03,0.09-0.04,0.3-0.04,0.63c0,1.22,0.07,2.07,0.22,2.55c-0.03,0.07-0.06,0.18-0.1,0.32l-0.04,0.01l-0.06-0.04
			c-0.06,0.08-0.13,0.19-0.21,0.32c-0.46-0.29-0.69-0.92-0.69-1.89c0-0.56,0.02-0.85,0.06-0.89l0.12,0.34l0.15-4.19
			c-0.03-0.07-0.04-0.29-0.04-0.66c0-0.28-0.05-0.46-0.15-0.54c-0.01-0.05-0.01-0.09-0.01-0.13c0-0.15,0.09-0.27,0.27-0.38
			c0.15-0.08,0.3-0.15,0.45-0.22c0.19,0.05,0.29,0.16,0.31,0.34c-0.05,0.15-0.1,0.61-0.16,1.39c-0.06,0.71-0.09,1.2-0.09,1.45
			c0,0.15,0.02,0.29,0.04,0.44l0.21-0.73c0.02,0.11,0.09,0.26,0.21,0.45c0.05,0.01,0.13-0.02,0.25-0.08
			c0.12-0.06,0.19-0.1,0.22-0.11L55.03,11c0.07-0.06,0.22-0.13,0.46-0.21l0.13-0.25c0.23-0.21,0.51-0.45,0.85-0.7
			c-0.01-0.12-0.11-0.32-0.3-0.62c-0.17-0.25-0.25-0.58-0.25-0.98c0-0.13,0.03-0.35,0.09-0.67c0.05-0.28,0.07-0.5,0.06-0.66v-0.1
			l-0.03-0.03c-0.18,0.02-0.46,0.12-0.84,0.29c-0.34,0.16-0.62,0.23-0.84,0.23c-0.07,0-0.16-0.04-0.26-0.11s-0.17-0.11-0.2-0.11
			c-0.03,0.01-0.05,0.02-0.06,0.03c-0.07-0.09-0.15-0.13-0.25-0.14s-0.16-0.02-0.19-0.04c-0.06-0.04-0.15-0.09-0.28-0.16h-0.07
			c-0.16-0.1-0.31-0.23-0.45-0.41c0.01-0.03,0.02-0.06,0.02-0.09c0-0.05-0.07-0.13-0.21-0.25l-0.03-0.04
			c-0.02-0.12-0.07-0.34-0.16-0.67c-0.09-0.27-0.13-0.5-0.13-0.67c0-0.24,0.06-0.39,0.19-0.44c0.17-0.04,0.33-0.08,0.49-0.12
			c0.06,0.03,0.19,0.06,0.4,0.09l0.01,0.03c0.02,0.02,0.04,0.05,0.06,0.09c0.02,0.04,0.04,0.07,0.06,0.1l0.03,0.04
			c0.02,0.01,0.04,0.01,0.07,0l0.04,0.07c0.01-0.03,0.04-0.05,0.09-0.06c0.12,0.02,0.3,0.04,0.55,0.07c0.07,0.01,0.18,0,0.32-0.04
			c0.14-0.03,0.25-0.05,0.31-0.05c0.05,0,0.15,0.01,0.31,0.04l0.88-0.16l0.22,0.04c0.01-0.03,0.02-0.05,0.04-0.06
			c0.07,0,0.12,0,0.15-0.01c0.13,0,0.33,0.01,0.6,0.04c0.24,0.06,0.5,0.21,0.78,0.47c0.3,0.28,0.45,0.54,0.45,0.76l0.03,0.04
			c0.04,0.04,0.1,0.09,0.19,0.16c0,0.24-0.21,0.56-0.62,0.94s-0.59,0.69-0.54,0.92c-0.05,0.07-0.07,0.13-0.07,0.18
			c0,0.38,0.12,0.7,0.37,0.95c0.38,0.36,0.59,0.6,0.64,0.7C58.31,9.72,58.55,10.11,58.87,10.65z"/>
		<path class="st1" d="M65.76,11.18l-0.09,0.29l0.02,0.09c-0.03,0-0.26,0-0.7,0c-0.13,0-0.24,0.03-0.34,0.09l-0.3-0.42
			c-0.16-0.03-0.24-0.04-0.25-0.04c-0.08-0.03-0.14-0.08-0.18-0.16c-0.12,0-0.24-0.04-0.36-0.12c-0.12-0.08-0.23-0.15-0.33-0.22
			c-0.02,0-0.05,0.02-0.1,0.06c-0.05-0.06-0.14-0.1-0.27-0.12s-0.21-0.05-0.25-0.07c-0.05-0.08-0.23-0.33-0.55-0.75
			c0-0.17-0.03-0.28-0.1-0.35C61.96,9.29,62,9.14,62.07,9c0.14-0.05,0.36-0.13,0.66-0.25c0.09,0.03,0.23,0.12,0.43,0.26
			c0.23,0.07,0.63,0.29,1.2,0.66s0.94,0.65,1.1,0.83C65.47,10.52,65.57,10.75,65.76,11.18z M66.8,7.33
			c-0.03,0.06-0.05,0.12-0.07,0.18c-0.03,0.06-0.03,0.12,0,0.18l-0.18,0.1c-0.01,0.05-0.1,0.14-0.28,0.26
			c-0.89-0.05-1.34-0.07-1.36-0.06c-0.11-0.05-0.25-0.12-0.43-0.22c-0.15,0.05-0.26,0.06-0.34,0.03l-0.06,0.06
			c-0.03-0.04-0.04-0.13-0.04-0.28V7.5l-0.04-0.04c-0.13,0-0.2,0.02-0.21,0.07L63.7,7.49L63.61,7.5c0-0.11-0.09-0.19-0.27-0.23V7.06
			l-0.04,0.01c-0.03,0.04-0.07,0.08-0.13,0.13c-0.03-0.01-0.05-0.02-0.07-0.04s-0.03-0.05-0.03-0.09l-0.02-0.01l-0.09,0.01
			c0-0.07-0.03-0.14-0.09-0.21C62.8,6.8,62.75,6.73,62.7,6.67l0.03-0.1c-0.03-0.09-0.09-0.21-0.18-0.35
			c-0.04-0.02-0.07-0.02-0.1-0.01l-0.02-0.21c-0.08-0.03-0.12-0.08-0.13-0.14c-0.01-0.06-0.02-0.13-0.03-0.2
			c-0.03-0.03-0.06-0.05-0.09-0.06c-0.01-0.04-0.01-0.08,0-0.13c0.02-0.04,0.04-0.07,0.07-0.09l-0.09-0.06V5.23
			c-0.03-0.03-0.05-0.06-0.07-0.1l-0.02-0.1c0.01-0.05,0.02-0.12,0.02-0.21l0.27-0.25V4.5c0.03-0.05,0.05-0.09,0.06-0.13h0.07
			l-0.01-0.1c0.12-0.18,0.23-0.25,0.34-0.22l0.15-0.25l0.09-0.01c0.07,0.03,0.17,0.09,0.31,0.18l0.09-0.1
			c0.06,0.03,0.12,0.04,0.18,0.04l0.09-0.06h0.01c0.05,0.01,0.12,0.05,0.22,0.12c0.02,0.01,0.05,0.02,0.1,0.04l0.01,0.04l0.16-0.03
			c0.07,0.12,0.19,0.28,0.36,0.48l0.04-0.04c0.08,0.03,0.15,0.05,0.21,0.07l0.02,0.01c-0.02,0.02-0.04,0.04-0.04,0.06l0.03,0.06
			c0.09,0.06,0.18,0.17,0.28,0.34L65.1,5.16l0.03,0.03c0,0.04,0.03,0.1,0.09,0.19l0.07-0.06c0.12,0.12,0.28,0.29,0.49,0.53V5.82
			l0.01-0.03l0.03-0.01c0,0.01,0.04,0.1,0.13,0.28h0.06c0.03,0.02,0.09,0.08,0.18,0.18l-0.01,0.06l0.04,0.07
			c0.04,0.03,0.1,0.07,0.18,0.13v0.04l0.02,0.04c0.02,0.01,0.04,0.03,0.06,0.07s0.05,0.1,0.09,0.18C66.71,6.97,66.78,7.14,66.8,7.33
			z M64.73,15.59c-0.05,0-0.24-0.06-0.58-0.18c-0.34-0.12-0.53-0.2-0.57-0.25h-0.12c-0.02-0.16-0.07-0.25-0.16-0.29
			s-0.17-0.07-0.25-0.1l-0.02-0.04c0-0.02,0.01-0.03,0.03-0.03h0.04c-0.05-0.02-0.09-0.06-0.13-0.13l0.04-0.03
			c-0.24-0.17-0.36-0.29-0.36-0.37c0-0.04,0.01-0.08,0.03-0.13c-0.22-0.27-0.33-0.49-0.33-0.64l0.04-0.04
			c0.05-0.01,0.17-0.01,0.36-0.01c0.05,0,0.14,0.02,0.27,0.06c0.02,0.01,0.06,0.01,0.11,0.01s0.09-0.01,0.11-0.01h0.07l0.13,0.15
			l0.1-0.01l0.06,0.09l0.13-0.04l0.28,0.04l0.19,0.25h0.1l-0.02,0.01l0.02,0.03c0.01,0.02,0.02,0.05,0.04,0.09
			c0.06,0,0.13-0.03,0.21-0.09l0.06,0.1l0.15-0.01c0.01,0.1,0.06,0.19,0.14,0.29c0.08,0.09,0.14,0.16,0.16,0.21
			c0,0.02-0.01,0.05-0.02,0.09s-0.01,0.07-0.01,0.09c0,0.05,0.01,0.11,0.04,0.19c0.03,0.08,0.04,0.13,0.04,0.16v0.26
			C65.05,15.48,64.9,15.59,64.73,15.59z M75.27,13.01c-0.05-0.01-0.12-0.03-0.21-0.06l-0.04,0.03c0,0.02,0,0.05,0,0.1v0.07
			c0.04,0.03,0.08,0.05,0.13,0.07c0,0.07-0.01,0.13-0.04,0.18l-0.12-0.06l0.07-0.06v-0.04c-0.02-0.02-0.04-0.03-0.04-0.04
			c-0.09,0.07-0.16,0.14-0.22,0.22c-0.23-0.02-0.5-0.06-0.82-0.12c-0.08,0-0.12,0-0.13-0.01l-0.01-0.01c-0.05,0-0.1-0.02-0.15-0.06
			c-0.06-0.01-0.12-0.01-0.18-0.01c-0.13,0-0.22,0.02-0.27,0.07c-0.08-0.02-0.2-0.04-0.36-0.07c-0.03,0-0.08,0.03-0.15,0.09
			c-0.09-0.06-0.17-0.09-0.25-0.09c-0.03,0-0.07,0-0.13,0.01c-0.06,0.01-0.1,0.01-0.12,0.01c-0.08,0.16-0.15,0.62-0.22,1.39h-0.01
			c0.01,0.03,0.02,0.05,0.04,0.06l0.06,0.03l-0.03,0.04c-0.02,0.03-0.06,0.06-0.1,0.09c0.02,0.12,0.06,0.3,0.13,0.54
			c0.13,0.06,0.26,0.12,0.4,0.2s0.21,0.17,0.22,0.3l-0.15,0.13C72.48,16,72.44,16,72.41,16c-0.08,0-0.19,0.03-0.33,0.1
			c-0.14,0.06-0.26,0.09-0.37,0.07c-0.02,0.12-0.11,0.31-0.28,0.57c-0.04,0.01-0.06,0.01-0.07,0.01c-0.02,0-0.05,0-0.09-0.01
			c-0.03,0-0.05,0-0.07,0c-0.03-0.12-0.11-0.28-0.24-0.48c-0.11-0.17-0.17-0.35-0.18-0.56c-0.01-0.03-0.02-0.06-0.04-0.1
			c-0.1-0.12-0.3-0.21-0.6-0.28l-0.66-0.15c-0.19-0.09-0.38-0.18-0.58-0.26c-0.28-0.13-0.47-0.18-0.57-0.16l-0.43,0.07l-0.12-0.06
			l-0.15,0.04c-0.08-0.03-0.2-0.08-0.36-0.15c-0.23-0.19-0.41-0.39-0.54-0.6c-0.04-0.12-0.08-0.23-0.13-0.35s-0.15-0.2-0.3-0.23
			l-0.36,0.06c-0.04-0.03-0.09-0.05-0.16-0.06l-0.04,0.03c-0.09-0.07-0.25-0.14-0.49-0.22c-0.04-0.04-0.18-0.11-0.42-0.22
			c-0.18-0.08-0.28-0.18-0.31-0.31l-0.12-0.04l-0.03-0.16c0.11-0.04,0.26-0.11,0.46-0.22l0.12,0.03l0.1-0.12
			c0.05-0.01,0.11-0.01,0.19-0.01s0.15,0.01,0.22,0.04c0.03-0.04,0.16-0.06,0.39-0.06c0.07,0,0.19-0.01,0.37-0.04
			s0.33-0.04,0.46-0.04c0.18-0.25,0.36-0.51,0.54-0.76c0.2-0.29,0.43-0.5,0.69-0.62c0.07,0.02,0.13,0.05,0.19,0.1l0.1-0.07
			c0.18,0.05,0.3,0.21,0.36,0.48c0.04,0.21,0.08,0.42,0.12,0.63l0.36,0.06c0.07-0.06,0.14-0.13,0.21-0.22l-0.02-0.09
			c0.09-0.23,0.11-0.42,0.07-0.56c0.2-0.33,0.3-0.52,0.3-0.56h0.18c0.08-0.04,0.21-0.06,0.4-0.06c0.05,0,0.12,0,0.22,0
			c0.1,0.01,0.17,0.01,0.21,0.01l0.06,0.16c-0.01,0.02-0.02,0.05-0.04,0.09l-0.02,0.04l0.09,0.21l-0.06,0.04
			c-0.01,0.03-0.02,0.06-0.02,0.09c0,0.01,0.01,0.06,0.03,0.16l-0.07,0.1c0.01,0.11-0.01,0.29-0.06,0.54
			c0.08,0.05,0.2,0.07,0.37,0.07c0.17,0,0.28,0,0.34,0.02l0.21-1.33l-0.03-0.1h-0.1c-0.17,0.01-0.38-0.04-0.64-0.14
			c-0.26-0.1-0.42-0.21-0.49-0.31l-0.24,0.01V9.93c0.27-0.19,0.6-0.31,0.98-0.37c0.36-0.05,0.71-0.1,1.06-0.15
			c0.18,0.09,0.36,0.18,0.54,0.26c0.21,0.12,0.37,0.23,0.48,0.35c0.03,0.06,0.1,0.13,0.22,0.22c0.05,0.09,0.07,0.18,0.07,0.26
			c0,0.04,0,0.08-0.01,0.13c-0.02,0-0.11,0.04-0.27,0.12c-0.29,0.13-0.48,0.29-0.57,0.5c0,0.02-0.05,0.27-0.15,0.75
			c0.02,0,0.12,0.02,0.29,0.05c0.17,0.03,0.27,0.05,0.28,0.05l-0.03,0.03l-0.03,0.03l0.04,0.04l0.04-0.01
			c0.08-0.06,0.13-0.1,0.15-0.12c0,0.03,0.01,0.06,0.03,0.1l0.03-0.03v-0.03L73.1,12.1c0.28,0.03,0.66,0.09,1.13,0.18l0.09-0.04
			c0.16,0.08,0.35,0.2,0.57,0.37c0.01,0.05,0.09,0.11,0.25,0.19l0.34,0.16L75.27,13.01z M73.09,7.85c0,0.1-0.06,0.18-0.17,0.26
			s-0.17,0.15-0.17,0.23c-0.15,0.01-0.36,0.02-0.64,0.04c-0.64,0.1-1.24,0.29-1.81,0.57C69.99,9.2,69.55,9.48,69,9.79
			c-0.04,0.04-0.09,0.1-0.15,0.18v0.09c-0.06-0.03-0.15-0.08-0.27-0.16l-0.25,0.16c-0.1,0-0.2-0.04-0.3-0.13s-0.17-0.13-0.22-0.13
			c-0.1-0.21-0.23-0.32-0.4-0.34C67.13,9.1,67,8.83,67,8.66l0.18-0.53c0.1-0.31,0.24-0.96,0.42-1.93c0.02-0.27,0.09-0.68,0.21-1.23
			l-0.03-0.1c0.04-0.17,0.08-0.34,0.13-0.52c0.04-0.18,0.13-0.32,0.26-0.42l-0.04-0.06c0.01-0.05,0.03-0.1,0.06-0.16l-0.02-0.06
			l0.12-0.15l-0.03-0.09l0.06-0.12V3.22l-0.02-0.01c0.15-0.21,0.28-0.35,0.39-0.42l-0.04-0.07c0.07,0,0.17-0.05,0.3-0.15
			s0.25-0.14,0.37-0.11l0.06-0.13l0.16,0.04l0.1-0.01l0.18,0.09l0.04-0.03l0.02-0.07l0.04,0.01l0.04,0.06l0.07,0.03
			c0.06,0.01,0.14,0.01,0.24,0.01l0.03,0.04c0.01,0.02,0.07,0.07,0.18,0.16l0.04,0.23c0.07,0.05,0.17,0.17,0.31,0.35
			c0,0.04,0,0.09-0.02,0.16c-0.01,0.07-0.01,0.12-0.01,0.15s0,0.06,0.01,0.09h0.07l0.06,0.15l-0.09,0.23l-0.03,0.01
			c0.02,0.02,0.05,0.04,0.09,0.07l-0.1,0.13l0.04,0.15L70.8,4.51l0.07,0.15l-0.04,0.13l0.06,0.19l-0.06,0.18l0.07,0.15l-0.06,0.15
			l0.06,0.1c-0.02,0.04-0.04,0.09-0.06,0.15c0.02,0,0.04,0,0.06,0.01v0.06l-0.1,0.16l0.03,0.12c-0.05,0.09-0.19,0.24-0.42,0.47
			c-0.14,0.14-0.24,0.34-0.31,0.62l-0.09,0.13l-0.03,0.01c0.01,0.04,0.02,0.07,0.04,0.1c-0.09,0.07-0.13,0.2-0.13,0.4l0.12,0.03
			c0.34-0.07,0.7-0.14,1.07-0.22l0.13,0.01c0.18-0.07,0.35-0.1,0.52-0.1C72.4,7.5,72.85,7.62,73.09,7.85z M68.98,13.21
			c0-0.03-0.01-0.06-0.02-0.09c-0.18,0-0.4,0.04-0.67,0.12c-0.32,0.1-0.48,0.21-0.48,0.35c0,0.13,0.13,0.24,0.4,0.35
			c0.19,0.07,0.38,0.14,0.57,0.22c0.03-0.05,0.05-0.11,0.07-0.19l0.04-0.04v-0.06c-0.02-0.01-0.04-0.01-0.06-0.01l-0.02-0.03
			l0.03-0.01h0.03l0.03,0.03l0.02-0.01c-0.01-0.07-0.02-0.14-0.02-0.21c0-0.04,0.01-0.1,0.03-0.2
			C68.97,13.33,68.98,13.26,68.98,13.21z M71.1,13.21c-0.12-0.09-0.31-0.13-0.57-0.13l-0.06,0.01c-0.13,0.15-0.22,0.39-0.27,0.72
			c-0.06,0.45-0.1,0.71-0.13,0.79c0.13,0.03,0.31,0.1,0.55,0.22c-0.01-0.07-0.04-0.22-0.09-0.47c-0.04-0.2-0.06-0.35-0.06-0.47
			c0-0.08,0.01-0.15,0.03-0.22c0.07,0.21,0.12,0.34,0.15,0.41c0.08,0.14,0.18,0.24,0.31,0.32C71,14.14,71.04,13.74,71.1,13.21z"/>
	</g>
</g>
</svg>
