<?xml version="1.0" encoding="utf-8"?>
<!-- Generator: Adobe Illustrator 26.3.1, SVG Export Plug-In . SVG Version: 6.00 Build 0)  -->
<svg version="1.1" id="圖層_1" xmlns="http://www.w3.org/2000/svg" xmlns:xlink="http://www.w3.org/1999/xlink" x="0px" y="0px"
	 viewBox="0 0 19.81 4.93" style="enable-background:new 0 0 19.81 4.93;" xml:space="preserve">
<style type="text/css">
	.st0{clip-path:url(#SVGID_00000077288042764215857180000018016444207574597545_);}
	.st1{fill:#768350;}
</style>
<g>
	<defs>
		<rect id="SVGID_1_" width="19.81" height="4.93"/>
	</defs>
	<clipPath id="SVGID_00000122710005215169112700000010282412373743155884_">
		<use xlink:href="#SVGID_1_"  style="overflow:visible;"/>
	</clipPath>
	<g style="clip-path:url(#SVGID_00000122710005215169112700000010282412373743155884_);">
		<path class="st1" d="M6.06,3.36C5.18,2.84,4.42,2.07,3.55,1.55C2.83,1.13,2.37,0.19,1.43,0.03c-1.55-0.27-2.03,1.53-0.49,1.8
			c0.58,0.1,1.19,1.1,1.65,1.37c1.04,0.61,1.31,0.92,2.35,1.53C6.17,5.45,7.29,4.08,6.06,3.36z"/>
		<path class="st1" d="M15.4,0.11c-0.98-0.16-2.05,0.85-2.82,1.37C12.2,1.73,12,2.17,11.63,2.45c-0.38,0.28-0.86,0.85-1.28,1.07
			c-0.97,0.51,0.15,1.81,1.12,1.3c0.42-0.22,0.69-0.63,1.06-0.91c0.37-0.28,0.64-0.64,1.03-0.9c0.77-0.52,1.46-1.13,2.29-1.55
			C16.84,0.95,16.44,0.27,15.4,0.11z"/>
		<path class="st1" d="M19.21,3.36c0-0.04,0.01-0.07,0.01-0.11c-0.02-0.45-0.21-0.71-0.72-0.7c-0.2,0.01-0.39,0.01-0.59,0.02
			c-0.39,0.01-0.79,0.26-0.88,0.62c-0.09,0.36-0.05,0.92,0.31,1.11c0.04,0.02,0.07,0.04,0.11,0.06c0.14,0.32,0.46,0.34,0.85,0.31
			c0.07-0.01,0.13-0.01,0.2-0.02c0.37-0.03,0.58-0.25,0.73-0.58C19.34,3.85,19.33,3.58,19.21,3.36z"/>
		<path class="st1" d="M9.05,2c0.03-0.02,0.06-0.04,0.09-0.07c0.32-0.31,0.39-0.63,0.04-1C9.05,0.78,8.91,0.64,8.78,0.5
			C8.52,0.21,8.07,0.08,7.73,0.25C7.4,0.43,7.01,0.83,7.11,1.23c0.01,0.04,0.02,0.08,0.03,0.12C6.98,1.66,7.19,1.92,7.47,2.19
			c0.05,0.05,0.09,0.09,0.14,0.14C7.88,2.59,8.18,2.6,8.53,2.49C8.77,2.41,8.96,2.23,9.05,2z"/>
	</g>
</g>
</svg>
