<svg xmlns="http://www.w3.org/2000/svg" width="28" height="28" viewBox="0 0 28 28">
  <g id="Group_12" data-name="Group 12" transform="translate(1052 2511) rotate(180)">
    <g id="Component_8_9" data-name="Component 8 – 9" transform="translate(1052 2511) rotate(180)">
      <rect id="Rectangle_48" data-name="Rectangle 48" width="28" height="28" fill="none"/>
    </g>
    <g id="Layer_2" data-name="Layer 2" transform="translate(1028 2487)">
      <g id="invisible_box" data-name="invisible box">
        <rect id="Rectangle_50" data-name="Rectangle 50" width="20" height="20" fill="none"/>
      </g>
      <g id="icons_Q2" data-name="icons Q2" transform="translate(4.886 4.085)">
        <g id="Group_10" data-name="Group 10">
          <path id="Path_40" data-name="Path 40" d="M32.817,10a.817.817,0,0,0-.817.817v9.8a.817.817,0,1,0,1.634,0v-9.8A.817.817,0,0,0,32.817,10Z" transform="translate(-23.813 -10)" fill="#4b5927"/>
          <path id="Path_41" data-name="Path 41" d="M13.406,10.246a.858.858,0,0,0-1.1-.082.776.776,0,0,0-.082,1.226l4.33,4.33-4.33,4.33a.776.776,0,0,0,.082,1.226.858.858,0,0,0,1.1-.082l4.861-4.9a.776.776,0,0,0,0-1.144Z" transform="translate(-11.959 -10.001)" fill="#4b5927"/>
        </g>
      </g>
    </g>
  </g>
</svg>
