<svg id="Layer_2" data-name="Layer 2" xmlns="http://www.w3.org/2000/svg" width="24" height="24" viewBox="0 0 24 24">
  <g id="invisible_box" data-name="invisible box">
    <rect id="Rectangle_89" data-name="Rectangle 89" width="24" height="24" fill="none"/>
  </g>
  <g id="icons_Q2" data-name="icons Q2" transform="translate(1.847 2.896)">
    <path id="Path_52" data-name="Path 52" d="M32.466,28H30.822a.822.822,0,0,0-.822.822v1.644a.822.822,0,0,0,.822.822h1.644a.822.822,0,0,0,.822-.822V28.822A.822.822,0,0,0,32.466,28Zm0,0H30.822a.822.822,0,0,0-.822.822v1.644a.822.822,0,0,0,.822.822h1.644a.822.822,0,0,0,.822-.822V28.822A.822.822,0,0,0,32.466,28Z" transform="translate(-16.313 -16.233)" fill="#768350"/>
    <path id="Path_53" data-name="Path 53" d="M21.383,4.584H17.229V2.9a.925.925,0,0,0-.785-.909.966.966,0,0,0-.744.2.843.843,0,0,0-.317.663V4.584H8.922V2.9a.925.925,0,0,0-.785-.909.966.966,0,0,0-.744.2.843.843,0,0,0-.317.663V4.584H2.923A.9.9,0,0,0,2,5.449V19.3a.9.9,0,0,0,.923.865h18.46a.9.9,0,0,0,.923-.865V5.449A.9.9,0,0,0,21.383,4.584ZM20.46,18.431H3.846V9.776H20.46Zm0-10.385H3.846V6.314H20.46Z" transform="translate(-2 -1.977)" fill="#768350"/>
  </g>
</svg>
